<?xml version="1.0" encoding="UTF-8"?>
<svg version="1.1" xmlns="http://www.w3.org/2000/svg" width="744" height="210">
<path d="M0 0 C245.52 0 491.04 0 744 0 C744 69.3 744 138.6 744 210 C498.48 210 252.96 210 0 210 C0 140.7 0 71.4 0 0 Z " fill="#030202" transform="translate(0,0)"/>
<path d="M0 0 C12.03625789 4.71420101 25.80893371 0.60270821 37.1796875 -3.796875 C50.83499448 -7.67893235 66.7171853 -4.04620463 78.8125 2.625 C86.30804837 7.35001638 91.29418441 12.43660144 95.3125 20.3125 C94.42498047 20.78429687 94.42498047 20.78429687 93.51953125 21.265625 C83.36546296 26.76505513 77.70206249 32.72220344 73.4375 43.625 C70.07010259 55.2578274 72.75713068 64.96112838 78.3125 75.3125 C82.06985884 81.80248345 89.32716971 85.98405657 96.3125 88.3125 C95.05872887 94.90300376 93.16912083 100.53359645 90.25 106.5625 C89.85514404 107.38588867 89.46028809 108.20927734 89.0534668 109.05761719 C85.46178262 116.35333678 81.27368452 122.87050566 76.3125 129.3125 C75.77882812 130.01761719 75.24515625 130.72273437 74.6953125 131.44921875 C69.5109311 137.90867773 63.11743111 142.55781843 55.3125 145.3125 C54.3225 145.3125 53.3325 145.3125 52.3125 145.3125 C52.3125 145.9725 52.3125 146.6325 52.3125 147.3125 C50.3325 147.3125 48.3525 147.3125 46.3125 147.3125 C46.10330623 136.15945172 45.94372143 125.00687551 45.84619045 113.85225964 C45.79936217 108.67171263 45.73592287 103.49251476 45.63354492 98.31274414 C45.5352344 93.30702417 45.48183452 88.30259564 45.45860481 83.29598427 C45.44206693 81.39297481 45.40977092 79.49003038 45.36092949 77.58757591 C44.94834071 60.83946241 44.94834071 60.83946241 50.70727539 53.78637695 C52.22148693 52.27390512 53.7540647 50.779363 55.3125 49.3125 C56.76949139 47.36341726 58.02757149 45.37955891 59.3125 43.3125 C61.48124252 43.81853992 63.31217627 44.31233813 65.3125 45.3125 C65.37308594 44.15492187 65.43367187 42.99734375 65.49609375 41.8046875 C65.58055502 40.26561543 65.66520018 38.72655345 65.75 37.1875 C65.78931641 36.42695312 65.82863281 35.66640625 65.86914062 34.8828125 C66.10759002 30.62740797 66.51480237 26.50879174 67.3125 22.3125 C64.60376127 23.10280017 61.89550584 23.89469566 59.1875 24.6875 C58.42695313 24.90921875 57.66640625 25.1309375 56.8828125 25.359375 C52.66262047 26.59632784 48.47485318 27.88958693 44.3125 29.3125 C45.3025 30.3025 46.2925 31.2925 47.3125 32.3125 C45.67765835 35.99528844 43.40463324 38.95126064 40.9375 42.125 C40.27983643 42.97324341 40.27983643 42.97324341 39.60888672 43.83862305 C35.77604773 48.76396251 31.858429 53.62039063 27.94287109 58.47998047 C22.21765386 65.62033691 16.76136714 72.96039381 11.3125 80.3125 C3.98113297 78.02722703 -2.95438905 75.11112034 -9.93359375 71.921875 C-14.57526847 69.86698899 -14.57526847 69.86698899 -19.55859375 69.3828125 C-21.96126566 70.43205271 -23.24586104 71.49619485 -25 73.4375 C-27.96708068 76.68110961 -31.18338251 79.5149879 -34.50024414 82.39013672 C-38.16478011 85.61087075 -41.70409379 88.96234064 -45.25 92.3125 C-45.96607422 92.98539062 -46.68214844 93.65828125 -47.41992188 94.3515625 C-51.92174016 98.59531477 -56.33998778 102.91082656 -60.6875 107.3125 C-63.6875 106.3125 -63.6875 106.3125 -65.1171875 104.15234375 C-69.29760103 95.75762144 -72.20211826 87.32144294 -74.6875 78.3125 C-75.00976562 77.20390625 -75.33203125 76.0953125 -75.6640625 74.953125 C-80.38056595 56.52790591 -79.16691692 37.01515732 -69.69921875 20.421875 C-54.51949556 -3.04037677 -25.57669174 -11.80462696 0 0 Z " fill="#825F29" transform="translate(84.6875,59.6875)"/>
<path d="M0 0 C0.8749381 11.15546077 -3.30443222 22.15285888 -10 31 C-16.29612745 37.85907531 -25.53866109 42.7241748 -34.8671875 43.1953125 C-36.20326637 43.18221369 -37.53928077 43.15865184 -38.875 43.125 C-39.56335938 43.11597656 -40.25171875 43.10695312 -40.9609375 43.09765625 C-42.64077838 43.07432513 -44.32043746 43.03846326 -46 43 C-46.71348496 31.46532654 -44.54120253 23.1401537 -37.109375 14.16796875 C-26.18071926 2.93573924 -15.3866035 -0.79815234 0 0 Z " fill="#8B672F" transform="translate(146,7)"/>
<path d="M0 0 C2.8992226 0.46761655 3.86675182 0.86675182 6 3 C5.77789184 7.06013721 3.12959779 9.48593826 0.5625 12.4375 C-0.3562418 13.5099445 -1.27284534 14.58422384 -2.1875 15.66015625 C-2.65671875 16.21203613 -3.1259375 16.76391602 -3.609375 17.33251953 C-5.79614376 19.9546457 -7.87009979 22.65837811 -9.9375 25.375 C-10.76810656 26.46363522 -11.59883732 27.55217569 -12.4296875 28.640625 C-12.84831055 29.18912109 -13.26693359 29.73761719 -13.69824219 30.30273438 C-20.62866029 39.33879339 -27.74526188 48.22266252 -35 57 C-39.19706915 56.43987714 -42.60926633 55.46767654 -46.44140625 53.6796875 C-47.43720703 53.22722656 -48.43300781 52.77476562 -49.45898438 52.30859375 C-51.5341942 51.35000092 -53.60710889 50.3864243 -55.67773438 49.41796875 C-56.67224609 48.96808594 -57.66675781 48.51820313 -58.69140625 48.0546875 C-60.04020874 47.42796143 -60.04020874 47.42796143 -61.41625977 46.78857422 C-64.45975797 45.8596789 -66.00255462 45.97961261 -69 47 C-70.88473101 48.26821216 -70.88473101 48.26821216 -72.53125 49.95703125 C-73.4903125 50.87548828 -73.4903125 50.87548828 -74.46875 51.8125 C-75.1390625 52.4725 -75.809375 53.1325 -76.5 53.8125 C-77.92663377 55.18406151 -79.3537235 56.55514892 -80.78125 57.92578125 C-81.49023438 58.61236816 -82.19921875 59.29895508 -82.9296875 60.00634766 C-86.93958766 63.86776802 -91.04401268 67.62638523 -95.1484375 71.38671875 C-96.93487787 73.02388123 -98.71243104 74.67085384 -100.4765625 76.33203125 C-101.18554688 76.98558594 -101.89453125 77.63914062 -102.625 78.3125 C-103.21539062 78.86550781 -103.80578125 79.41851562 -104.4140625 79.98828125 C-104.93742187 80.32214844 -105.46078125 80.65601563 -106 81 C-106.99 80.67 -107.98 80.34 -109 80 C-109.77734375 77.8046875 -109.77734375 77.8046875 -110 75 C-108.19140625 72.5703125 -108.19140625 72.5703125 -105.5625 70.125 C-104.63953125 69.25488281 -103.7165625 68.38476562 -102.765625 67.48828125 C-99.82424155 64.84186705 -96.86953329 62.21701546 -93.86328125 59.64453125 C-91.99548207 57.99601248 -90.24544376 56.27696419 -88.5 54.5 C-85.4782686 51.43030461 -82.32406376 48.57575205 -79.046875 45.78125 C-77.62868351 44.54709863 -76.24482637 43.27279576 -74.890625 41.96875 C-74.20484375 41.3190625 -73.5190625 40.669375 -72.8125 40 C-72.20019531 39.401875 -71.58789062 38.80375 -70.95703125 38.1875 C-69 37 -69 37 -66.71386719 37.28295898 C-63.84755504 38.04027806 -61.3203282 39.06061619 -58.62109375 40.28515625 C-57.61755859 40.73310547 -56.61402344 41.18105469 -55.58007812 41.64257812 C-53.48031557 42.59132106 -51.38135934 43.54185053 -49.28320312 44.49414062 C-48.28095703 44.94080078 -47.27871094 45.38746094 -46.24609375 45.84765625 C-45.33529053 46.26023682 -44.4244873 46.67281738 -43.48608398 47.09790039 C-40.81409692 48.22739876 -40.81409692 48.22739876 -37 48 C-35.34807688 46.04800845 -34.00495816 44.19609687 -32.625 42.0625 C-28.73299407 36.32574534 -24.58301206 30.93314743 -20.125 25.625 C-14.24053647 18.59380396 -8.67688163 11.37421336 -3.23046875 4 C-1 1 -1 1 0 0 Z " fill="#775424" transform="translate(135,96)"/>
<path d="M0 0 C2.97 0 5.94 0 9 0 C12.09370918 6.60086336 15.0040679 13.27365828 17.8125 20 C18.12646729 20.7417749 18.44043457 21.4835498 18.76391602 22.24780273 C20.03098896 25.30851983 21 27.65383381 21 31 C21.66 31 22.32 31 23 31 C23.11859375 30.12964111 23.2371875 29.25928223 23.359375 28.36254883 C23.99131949 25.04556276 24.94260163 22.30506563 26.25 19.19921875 C26.6934375 18.14025391 27.136875 17.08128906 27.59375 15.99023438 C28.0578125 14.90033203 28.521875 13.81042969 29 12.6875 C29.4640625 11.57826172 29.928125 10.46902344 30.40625 9.32617188 C33.85165344 1.14834656 33.85165344 1.14834656 35 0 C37.97 0 40.94 0 44 0 C44 13.86 44 27.72 44 42 C41.36 42 38.72 42 36 42 C35.505 29.625 35.505 29.625 35 17 C34.28972656 18.72089844 33.57945312 20.44179687 32.84765625 22.21484375 C31.91940104 24.4557831 30.99100855 26.6966656 30.0625 28.9375 C29.59392578 30.07380859 29.12535156 31.21011719 28.64257812 32.38085938 C27.9706543 34.00024414 27.9706543 34.00024414 27.28515625 35.65234375 C26.87144775 36.65257568 26.45773926 37.65280762 26.03149414 38.68334961 C25 41 25 41 24 42 C22.35 42 20.7 42 19 42 C15.37 33.09 11.74 24.18 8 15 C7.67 23.91 7.34 32.82 7 42 C4.69 42 2.38 42 0 42 C0 28.14 0 14.28 0 0 Z " fill="#F1F1F0" transform="translate(375,91)"/>
<path d="M0 0 C5.28 0 10.56 0 16 0 C16 19.47 16 38.94 16 59 C6 58 6 58 0 56 C0 37.52 0 19.04 0 0 Z " fill="#6F4F22" transform="translate(109,147)"/>
<path d="M0 0 C23.8609407 0 23.8609407 0 29.9765625 5.91015625 C32.00141069 10.04486534 31.49243735 14.52148192 31 19 C29.42088796 22.78986889 27.46675336 24.83327915 24 27 C18.83608171 28.7213061 13.40708764 28.05353552 8 28 C8 32.62 8 37.24 8 42 C5.36 42 2.72 42 0 42 C0 28.14 0 14.28 0 0 Z " fill="#ECECEB" transform="translate(570,91)"/>
<path d="M0 0 C4.95 0 9.9 0 15 0 C15 17.49 15 34.98 15 53 C8 55 8 55 0 55 C0 36.85 0 18.7 0 0 Z " fill="#785726" transform="translate(67,151)"/>
<path d="M0 0 C0 12.54 0 25.08 0 38 C-11.1019663 36.14967228 -18.59938055 29.13608474 -26 21 C-26.86625 20.071875 -27.7325 19.14375 -28.625 18.1875 C-30 16 -30 16 -29.8984375 14.25390625 C-28.55441292 10.88215762 -26.40132211 8.40543027 -24 5.75 C-23.57460938 5.19570312 -23.14921875 4.64140625 -22.7109375 4.0703125 C-16.23551795 -2.95915364 -10.39220549 0 0 0 Z " fill="#745324" transform="translate(61,168)"/>
<path d="M0 0 C4.7344316 1.91391916 7.72684393 5.45368786 10 10 C10.64053728 15.93728788 10.31175858 21.88788943 7 27 C3.31724364 30.56172681 -0.50910815 32.29460701 -5.625 32.5625 C-10.05504805 32.26513017 -12.69646911 31.07305199 -16 28 C-19.6029366 23.12873992 -20.65387727 18.33458556 -20.38671875 12.328125 C-19.79566203 8.76984416 -18.36192364 6.68110251 -16 4 C-14.9790625 2.824375 -14.9790625 2.824375 -13.9375 1.625 C-9.4060129 -0.8817801 -5.06257336 -0.6261403 0 0 Z " fill="#EDECEA" transform="translate(292,102)"/>
<path d="M0 0 C2.67348956 2.74384455 5.375 6.36720039 5.375 10.4375 C2.735 10.4375 0.095 10.4375 -2.625 10.4375 C-2.955 9.1175 -3.285 7.7975 -3.625 6.4375 C-7.31983919 5.25515146 -10.76853614 5.1570299 -14.625 5.4375 C-16.73438785 6.46171261 -16.73438785 6.46171261 -17.625 8.4375 C-17.34435651 10.11384368 -17.01489565 11.7831511 -16.625 13.4375 C-15.9959375 13.61925781 -15.366875 13.80101563 -14.71875 13.98828125 C-12.01368137 14.78269146 -9.31854257 15.60488071 -6.625 16.4375 C-5.86445313 16.66566406 -5.10390625 16.89382812 -4.3203125 17.12890625 C0.29569474 18.65305958 3.06085052 20.09846973 5.375 24.4375 C5.98169457 29.21521974 5.86305296 31.40282773 3.8125 35.75 C0.04525847 39.90362527 -3.11523056 41.16462574 -8.53515625 41.75390625 C-13.37812936 41.93994363 -16.76480772 41.8449595 -21.1875 39.75 C-23.65326287 37.41068651 -25.23150474 35.53415614 -26.625 32.4375 C-26.625 31.1175 -26.625 29.7975 -26.625 28.4375 C-23.3125 28.125 -23.3125 28.125 -19.625 28.4375 C-19.00625 29.675 -19.00625 29.675 -18.375 30.9375 C-17.7975 31.7625 -17.22 32.5875 -16.625 33.4375 C-12.35498823 34.05217244 -7.55185233 34.40092616 -3.625 32.4375 C-3.625 30.4575 -3.625 28.4775 -3.625 26.4375 C-4.17027344 26.26734375 -4.71554688 26.0971875 -5.27734375 25.921875 C-22.51802391 20.38128035 -22.51802391 20.38128035 -25.625 14.4375 C-26.53425427 8.07272013 -26.53425427 8.07272013 -24.63671875 4.66015625 C-18.54716381 -3.05076626 -8.74580938 -3.76974542 0 0 Z " fill="#EDEDEB" transform="translate(240.625,92.5625)"/>
<path d="M0 0 C4.1610986 1.53303633 5.53935571 2.30903357 8 6 C8.22705078 8.63549805 8.22705078 8.63549805 8.1953125 11.76171875 C8.18886719 12.87998047 8.18242188 13.99824219 8.17578125 15.15039062 C8.15902344 16.31763672 8.14226563 17.48488281 8.125 18.6875 C8.11597656 19.86634766 8.10695313 21.04519531 8.09765625 22.25976562 C8.07406423 25.17338026 8.0411454 28.08658892 8 31 C5.36 31 2.72 31 0 31 C-0.33 30.34 -0.66 29.68 -1 29 C-1.99 29.66 -2.98 30.32 -4 31 C-9.02392499 31.80893707 -12.83247161 31.77056874 -17.125 28.9375 C-19.50177019 25.21389337 -19.77533825 23.34189423 -19 19 C-16.36293844 15.17200741 -13.90460968 13.74637111 -9.5 12.6875 C-6.30595759 12.11694484 -3.25162288 11.79021788 0 12 C-0.66 10.35 -1.32 8.7 -2 7 C-5.41656024 6.83322718 -5.41656024 6.83322718 -9 7 C-9.66 7.66 -10.32 8.32 -11 9 C-14.625 9.125 -14.625 9.125 -18 9 C-15.1598565 -0.29501508 -8.71592369 -1.07351553 0 0 Z " fill="#F8F7F4" transform="translate(658,102)"/>
<path d="M0 0 C4.18442362 2.29660195 7.38830611 5.46566505 9 10 C9 12.64 9 15.28 9 18 C1.74 18 -5.52 18 -13 18 C-11.34922098 21.75170424 -11.34922098 21.75170424 -9 25 C-4.72236934 25.43519764 -4.72236934 25.43519764 -1.0625 23.5 C1.91496009 21.33457448 4.42186379 21.79356906 8 22 C7.875 24.25 7.875 24.25 7 27 C2.15599705 30.79095883 -1.74539531 32.3796632 -7.94140625 32.27734375 C-12.54629457 31.65695083 -15.26106682 28.75837879 -18.375 25.5625 C-20.86419794 20.10541222 -20.74286094 14.89786562 -20 9 C-15.96369696 0.32942309 -9.03146796 -1.61506938 0 0 Z " fill="#F5F4F2" transform="translate(626,102)"/>
<path d="M0 0 C4.43041256 2.13609177 7.16159481 4.40398702 9 9 C9 11.97 9 14.94 9 18 C2.07 18 -4.86 18 -12 18 C-11.67 19.98 -11.34 21.96 -11 24 C-9.56589632 24.24954005 -8.12739928 24.47392642 -6.6875 24.6875 C-5.88699219 24.81511719 -5.08648438 24.94273438 -4.26171875 25.07421875 C-1.36633969 24.97920631 -0.92098251 24.04626398 1 22 C4.6875 21.8125 4.6875 21.8125 8 22 C7.875 24.25 7.875 24.25 7 27 C2.22316098 30.73839575 -1.74731532 32.42659999 -7.87109375 32.34765625 C-12.65338334 31.5666952 -15.90772028 28.5057127 -18.671875 24.6953125 C-21.00156197 19.96741835 -20.62829293 15.14502102 -20 10 C-18.3125 6.5 -18.3125 6.5 -16 4 C-14.9790625 2.824375 -14.9790625 2.824375 -13.9375 1.625 C-9.39324094 -0.88884544 -5.07334788 -0.73753515 0 0 Z " fill="#E1E1E0" transform="translate(533,102)"/>
<path d="M0 0 C5.28 0 10.56 0 16 0 C16 13.2 16 26.4 16 40 C8.08 40.495 8.08 40.495 0 41 C0 27.47 0 13.94 0 0 Z " fill="#725224" transform="translate(88,161)"/>
<path d="M0 0 C3.19422121 1.28489349 5.42188331 2.84376662 7 6 C7.084915 7.8863912 7.107193 9.77578515 7.09765625 11.6640625 C7.09443359 12.78554687 7.09121094 13.90703125 7.08789062 15.0625 C7.07951172 16.238125 7.07113281 17.41375 7.0625 18.625 C7.05798828 19.80835937 7.05347656 20.99171875 7.04882812 22.2109375 C7.03701467 25.14067507 7.02054258 28.07031272 7 31 C4.69 31 2.38 31 0 31 C-0.33 30.01 -0.66 29.02 -1 28 C-1.86625 28.66 -2.7325 29.32 -3.625 30 C-7.29623434 32.17554627 -8.83378686 32.62049983 -13 32 C-15.77835049 30.73711341 -17.49102772 29.6477829 -19.375 27.25 C-20.34245816 23.76715062 -19.97469149 21.47233843 -19 18 C-16.09263208 14.38543447 -14.50813893 13.25936147 -9.93359375 12.47265625 C-6.94972032 12.21548652 -3.99394219 12.05329023 -1 12 C-1.33 10.35 -1.66 8.7 -2 7 C-6.0100934 6.82135369 -6.0100934 6.82135369 -10 7 C-10.66 7.66 -11.32 8.32 -12 9 C-15.125 9.125 -15.125 9.125 -18 9 C-17.7365632 5.83875839 -17.15914751 4.20305028 -15.1875 1.6875 C-10.24818171 -0.92743321 -5.47092191 -0.75410005 0 0 Z " fill="#F5F4F1" transform="translate(445,102)"/>
<path d="M0 0 C2.64 0 5.28 0 8 0 C8.33 7.26 8.66 14.52 9 22 C15.51917682 16.10722573 15.51917682 16.10722573 17.375 12.5625 C19.53608517 10.48453349 20.73763256 10.76376299 23.6875 10.75 C25.1259798 10.81423833 26.56416999 10.89163547 28 11 C27.61328125 11.44730469 27.2265625 11.89460938 26.828125 12.35546875 C25.74922116 13.60795861 24.67521584 14.86468039 23.60546875 16.125 C22.28384131 17.6685065 20.9276424 19.18234299 19.5625 20.6875 C17.80673298 22.77543663 17.80673298 22.77543663 18.1171875 24.73046875 C19.40736247 28.047246 21.48118729 30.76917123 23.5625 33.625 C28 39.73918816 28 39.73918816 28 42 C23.0065703 42.78843627 23.0065703 42.78843627 20 42 C17.82728681 39.92138069 16.22825641 37.74761813 14.54296875 35.26171875 C13.16781414 33.2459858 11.78168739 31.65327749 10 30 C8.26043342 31.73956658 8.62809614 34.1936622 8.4375 36.5625 C8.35371094 37.57441406 8.26992188 38.58632812 8.18359375 39.62890625 C8.12300781 40.41136719 8.06242187 41.19382813 8 42 C5.36 42 2.72 42 0 42 C0 28.14 0 14.28 0 0 Z " fill="#EFEEED" transform="translate(341,91)"/>
<path d="M0 0 C2.64 0 5.28 0 8 0 C8.33 7.26 8.66 14.52 9 22 C10.65 20.185 12.3 18.37 14 16.5 C18.95308964 11.30446693 18.95308964 11.30446693 22.51171875 10.26953125 C24.6875 10.3125 24.6875 10.3125 28 11 C21.84965831 19.44646925 21.84965831 19.44646925 18 23 C19.47446921 27.17637613 21.56552481 30.5394691 24.0625 34.1875 C27.92881356 39.85762712 27.92881356 39.85762712 29 42 C25.77394097 42.73930519 23.20309242 42.91305408 20 42 C16.7118073 38.7118073 14.24110713 35.06696825 12 31 C12 30.34 12 29.68 12 29 C11.01 29.66 10.02 30.32 9 31 C8.41651248 33.6556728 8.41651248 33.6556728 8.3125 36.625 C8.24675781 37.62789062 8.18101562 38.63078125 8.11328125 39.6640625 C8.07589844 40.43492187 8.03851563 41.20578125 8 42 C5.36 42 2.72 42 0 42 C0 28.14 0 14.28 0 0 Z " fill="#EFEEEC" transform="translate(482,91)"/>
<path d="M0 0 C2.31 0 4.62 0 7 0 C7.33 4.95 7.66 9.9 8 15 C9.32 13.68 10.64 12.36 12 11 C14.21875 10.5390625 14.21875 10.5390625 16.5 10.625 C17.2528125 10.63789062 18.005625 10.65078125 18.78125 10.6640625 C21.32727946 11.04955288 22.86091662 11.5534887 25 13 C27.66314183 16.69639375 28.36561175 19.21020094 28.29296875 23.73828125 C28.28330078 24.80498047 28.27363281 25.87167969 28.26367188 26.97070312 C28.23853516 28.07349609 28.21339844 29.17628906 28.1875 30.3125 C28.16719727 31.99569336 28.16719727 31.99569336 28.14648438 33.71289062 C28.1112138 36.47575229 28.06192235 39.23762829 28 42 C25.36 42 22.72 42 20 42 C19.98018066 41.34402832 19.96036133 40.68805664 19.93994141 40.01220703 C19.84487493 37.04938931 19.73512248 34.08729468 19.625 31.125 C19.5940625 30.09246094 19.563125 29.05992188 19.53125 27.99609375 C19.49257813 27.00996094 19.45390625 26.02382812 19.4140625 25.0078125 C19.36693115 23.64100342 19.36693115 23.64100342 19.31884766 22.24658203 C19.20117489 19.80068814 19.20117489 19.80068814 17 18 C12.91602147 17.51468886 12.91602147 17.51468886 9.34057617 19.21411133 C7.6008095 21.53179357 7.57557984 23.00586539 7.48828125 25.88671875 C7.43510742 27.2934082 7.43510742 27.2934082 7.38085938 28.72851562 C7.35830078 29.70498047 7.33574219 30.68144531 7.3125 31.6875 C7.27833984 32.67556641 7.24417969 33.66363281 7.20898438 34.68164062 C7.12649462 37.12098053 7.05734932 39.55996063 7 42 C4.69 42 2.38 42 0 42 C0 28.14 0 14.28 0 0 Z " fill="#ECEDED" transform="translate(707,91)"/>
<path d="M0 0 C3.00941698 1.51477343 5.0992371 3.21090804 7 6 C7.4375 8.875 7.4375 8.875 7 11 C4.69 11 2.38 11 0 11 C-0.33 9.68 -0.66 8.36 -1 7 C-6.33604504 6.43519275 -6.33604504 6.43519275 -11 8.4375 C-12.82755057 13.12059833 -12.86616312 17.91101836 -10.9375 22.5625 C-7.90622489 24.81151056 -5.64942331 24.52134619 -2 24 C-1.505 23.34 -1.01 22.68 -0.5 22 C-0.005 21.34 0.49 20.68 1 20 C4.6875 19.75 4.6875 19.75 8 20 C7.6999825 23.50020422 7.04266259 24.94904191 4.75 27.6875 C0.9953362 30.84483093 -1.51740998 31.83526778 -6.375 32.375 C-10.6755925 31.93011112 -13.76651884 30.83329784 -17 28 C-20.71898396 23.25282636 -21.65091535 18.26799335 -21.38671875 12.328125 C-20.79566203 8.76984416 -19.36192364 6.68110251 -17 4 C-16.34 3.21625 -15.68 2.4325 -15 1.625 C-10.14474805 -1.00492814 -5.38050166 -0.94407219 0 0 Z " fill="#F0EFED" transform="translate(693,102)"/>
<path d="M0 0 C2.97 0 5.94 0 9 0 C9 13.86 9 27.72 9 42 C6.36 42 3.72 42 1 42 C0.67 33.75 0.34 25.5 0 17 C-1.65 20.96 -3.3 24.92 -5 29 C-6.32 28.34 -7.64 27.68 -9 27 C-8.66666667 25 -8.33333333 23 -8 21 C-7.88527344 20.09121094 -7.77054687 19.18242188 -7.65234375 18.24609375 C-6.89777569 14.49132693 -5.55065758 11.16550792 -4 7.6875 C-3.72671875 7.05521484 -3.4534375 6.42292969 -3.171875 5.77148438 C-1.15160714 1.15160714 -1.15160714 1.15160714 0 0 Z " fill="#E9E7E6" transform="translate(410,91)"/>
<path d="M0 0 C2.64378603 1.40780221 4.58308999 2.84017395 6.30078125 5.3046875 C6.86328125 7.2421875 6.86328125 7.2421875 6.86328125 10.2421875 C3.61328125 10.4921875 3.61328125 10.4921875 -0.13671875 10.2421875 C-0.79671875 9.5615625 -1.45671875 8.8809375 -2.13671875 8.1796875 C-4.10655827 5.82181122 -4.10655827 5.82181122 -7.76171875 6.2421875 C-11.09470171 6.90549708 -11.09470171 6.90549708 -12.57421875 8.8671875 C-13.6209015 13.28651466 -13.62478366 16.89283158 -12.07421875 21.1796875 C-10.19785883 23.59796655 -10.19785883 23.59796655 -6.63671875 23.8046875 C-3.07982237 23.64872666 -3.07982237 23.64872666 -1.63671875 21.2421875 C-1.14171875 20.5821875 -0.64671875 19.9221875 -0.13671875 19.2421875 C3.55078125 18.9921875 3.55078125 18.9921875 6.86328125 19.2421875 C6.44771708 24.09043618 4.4887988 26.12255612 0.86328125 29.2421875 C-2.67863359 31.72152789 -5.89459224 31.60788806 -10.13671875 31.2421875 C-15.47411348 29.25374633 -18.59005699 26.33551102 -21.13671875 21.2421875 C-22.33116789 9.0417427 -22.33116789 9.0417427 -18.88671875 4.0546875 C-13.63426288 -1.31714237 -7.18557236 -2.54844797 0 0 Z " fill="#F5F4F3" transform="translate(328.13671875,102.7578125)"/>
<path d="M0 0 C2.64 0 5.28 0 8 0 C8 2.64 8 5.28 8 8 C9.98 8 11.96 8 14 8 C14 9.98 14 11.96 14 14 C12.02 14 10.04 14 8 14 C8.33 19.94 8.66 25.88 9 32 C10.32 32.66 11.64 33.32 13 34 C13 35.65 13 37.3 13 39 C11.58603027 39.13595863 10.16823316 39.23243845 8.75 39.3125 C7.96109375 39.37050781 7.1721875 39.42851562 6.359375 39.48828125 C4 39 4 39 1.71875 37.125 C-0.75366221 32.62970508 -0.43510611 28.72452214 -0.25 23.6875 C-0.23195313 22.75615234 -0.21390625 21.82480469 -0.1953125 20.86523438 C-0.14834888 18.57575803 -0.08269475 16.28841816 0 14 C-1.65 14 -3.3 14 -5 14 C-5 12.02 -5 10.04 -5 8 C-3.35 8 -1.7 8 0 8 C0 5.36 0 2.72 0 0 Z " fill="#EBEBEA" transform="translate(550,94)"/>
<path d="M0 0 C2.31 0 4.62 0 7 0 C7 2.31 7 4.62 7 7 C8.98 7 10.96 7 13 7 C13 8.98 13 10.96 13 13 C11.02 13 9.04 13 7 13 C7.33 18.94 7.66 24.88 8 31 C9.32 31.66 10.64 32.32 12 33 C12 34.65 12 36.3 12 38 C10.56416999 38.10836453 9.1259798 38.18576167 7.6875 38.25 C6.88699219 38.29640625 6.08648437 38.3428125 5.26171875 38.390625 C3 38 3 38 1.37695312 36.28710938 C-0.23942654 33.60231421 -0.34983543 32.12433671 -0.29296875 29.015625 C-0.28330078 28.08105469 -0.27363281 27.14648438 -0.26367188 26.18359375 C-0.23853516 25.21550781 -0.21339844 24.24742188 -0.1875 23.25 C-0.17396484 22.26644531 -0.16042969 21.28289062 -0.14648438 20.26953125 C-0.11118726 17.84579585 -0.06188054 15.42317855 0 13 C-1.65 13 -3.3 13 -5 13 C-5 11.02 -5 9.04 -5 7 C-3.35 7 -1.7 7 0 7 C0 4.69 0 2.38 0 0 Z " fill="#F6F5F4" transform="translate(255,95)"/>
<path d="M0 0 C3.01716276 0.04857686 4.06750824 0.39635749 6.28515625 2.49609375 C13.2608349 12.07806991 18.97744995 24.63850095 18.375 36.6875 C16.725 36.6875 15.075 36.6875 13.375 36.6875 C13.15585938 35.9140625 12.93671875 35.140625 12.7109375 34.34375 C9.78054059 24.71870648 6.22386218 18.94839662 -1.5625 12.625 C-3.89453125 10.6484375 -3.89453125 10.6484375 -5.625 8.6875 C-5.75 4.75 -5.75 4.75 -4.625 1.6875 C-3.625 0.6875 -3.625 0.6875 0 0 Z " fill="#85612D" transform="translate(80.625,22.3125)"/>
<path d="M0 0 C2.67348956 2.74384455 5.375 6.36720039 5.375 10.4375 C2.735 10.4375 0.095 10.4375 -2.625 10.4375 C-2.955 9.1175 -3.285 7.7975 -3.625 6.4375 C-7.31983919 5.25515146 -10.76853614 5.1570299 -14.625 5.4375 C-16.73438785 6.46171261 -16.73438785 6.46171261 -17.625 8.4375 C-17.78710219 11.04398505 -17.78710219 11.04398505 -16.625 13.4375 C-14.15369082 14.59271502 -14.15369082 14.59271502 -11.625 15.4375 C-11.295 16.4275 -10.965 17.4175 -10.625 18.4375 C-14.66926343 20.03639485 -17.47860644 21.0742343 -21.625 19.4375 C-24.87925642 16.53505508 -25.5666839 14.84571273 -26.1875 10.5 C-25.94555457 5.75966173 -24.0010025 3.66004784 -20.625 0.4375 C-14.7310827 -3.35330144 -6.18067509 -2.66408409 0 0 Z " fill="#F1EFEB" transform="translate(240.625,92.5625)"/>
<path d="M0 0 C2.31 0 4.62 0 7 0 C7.16811728 2.74991832 7.3345481 5.49992112 7.5 8.25 C7.54769531 9.02730469 7.59539063 9.80460937 7.64453125 10.60546875 C7.71220703 11.73662109 7.71220703 11.73662109 7.78125 12.890625 C7.82314453 13.58188477 7.86503906 14.27314453 7.90820312 14.98535156 C8.07578472 18.6632327 7.96043444 22.31109395 7.78125 25.984375 C7.73613281 26.91894531 7.69101562 27.85351562 7.64453125 28.81640625 C7.57298828 30.26853516 7.57298828 30.26853516 7.5 31.75 C7.45230469 32.73355469 7.40460937 33.71710938 7.35546875 34.73046875 C7.2378367 37.15368892 7.11931637 39.57686228 7 42 C4.69 42 2.38 42 0 42 C0 28.14 0 14.28 0 0 Z " fill="#F9F8F6" transform="translate(707,91)"/>
<path d="M0 0 C-0.99 1.65 -1.98 3.3 -3 5 C-2.01 5 -1.02 5 0 5 C0.34702817 8.72733956 0.51337497 12.28337909 0 16 C-2.9925958 19.06384808 -4.86195564 19.83742223 -9.0625 20.4375 C-13.16055376 19.82715157 -15.79623876 18.53205976 -18.375 15.25 C-19.34245816 11.76715062 -18.97469149 9.47233843 -18 6 C-12.73136588 0.2295912 -7.47769579 -0.22659684 0 0 Z " fill="#ECECE9" transform="translate(444,114)"/>
<path d="M0 0 C4.18282641 2.307253 7.38644989 5.46044276 9 10 C9 12.64 9 15.28 9 18 C1.74 18 -5.52 18 -13 18 C-13 17.67 -13 17.34 -13 17 C-11.35451172 16.97873047 -11.35451172 16.97873047 -9.67578125 16.95703125 C-8.22131302 16.91011292 -6.76688723 16.86186562 -5.3125 16.8125 C-4.2306543 16.80379883 -4.2306543 16.80379883 -3.12695312 16.79492188 C1.14232808 16.61947196 2.61448151 16.32567086 6.01953125 13.44921875 C6.67308594 12.64097656 7.32664062 11.83273438 8 11 C7.01 10.67 6.02 10.34 5 10 C5 9.01 5 8.02 5 7 C4.34 7 3.68 7 3 7 C3.33 8.98 3.66 10.96 4 13 C-1.61 13 -7.22 13 -13 13 C-12.67 11.35 -12.34 9.7 -12 8 C-15.62885324 7.84850702 -15.62885324 7.84850702 -19 9 C-18.08315806 5.69936902 -17.06877946 4.06525231 -14.5625 1.6875 C-9.61892054 -0.65419553 -5.37488059 -1.04381739 0 0 Z " fill="#E4E2DF" transform="translate(626,102)"/>
<path d="M0 0 C2.31 0 4.62 0 7 0 C7.33 0.99 7.66 1.98 8 3 C8.37125 2.505 8.7425 2.01 9.125 1.5 C11.74694393 -0.59755514 13.73842472 -0.21743835 17 0 C17 1.98 17 3.96 17 6 C15.88625 6.28875 14.7725 6.5775 13.625 6.875 C9.99708908 7.69241329 9.99708908 7.69241329 8 10 C7.62995706 12.22658154 7.62995706 12.22658154 7.5859375 14.7890625 C7.54726563 15.73007813 7.50859375 16.67109375 7.46875 17.640625 C7.4378125 18.62546875 7.406875 19.6103125 7.375 20.625 C7.31699219 22.11386719 7.31699219 22.11386719 7.2578125 23.6328125 C7.1633686 26.08835385 7.07780125 28.5438841 7 31 C4.69 31 2.38 31 0 31 C0 20.77 0 10.54 0 0 Z " fill="#F9F9F8" transform="translate(460,102)"/>
<path d="M0 0 C3.91075925 1.98968453 5.57689098 3.36533646 8 7 C8.26402861 10.35316337 8.08751723 13.63058658 8 17 C2.72 17 -2.56 17 -8 17 C-8.33 15.68 -8.66 14.36 -9 13 C-5.7 13 -2.4 13 1 13 C-0.08784968 9.75016865 -0.08784968 9.75016865 -2 7 C-7.32673036 6.66143172 -7.32673036 6.66143172 -12 9 C-12.33 8.01 -12.66 7.02 -13 6 C-14.32 7.65 -15.64 9.3 -17 11 C-17.33 9.35 -17.66 7.7 -18 6 C-12.73341462 -0.03949723 -7.8947963 -1.41488066 0 0 Z " fill="#F5F4F2" transform="translate(533,102)"/>
<path d="M0 0 C3.34124522 1.46179478 5.56503461 3.30872246 8 6 C7 8 7 8 4 10 C3.690625 9.319375 3.38125 8.63875 3.0625 7.9375 C1.21500891 5.79332374 1.21500891 5.79332374 -1.09765625 5.8515625 C-5.76250748 6.17672954 -5.76250748 6.17672954 -9.71875 8.43359375 C-12.18340571 11.44678564 -12.45785842 14.33591277 -13.0625 18.125 C-13.23910156 19.22070312 -13.41570312 20.31640625 -13.59765625 21.4453125 C-13.73042969 22.28835937 -13.86320312 23.13140625 -14 24 C-15.65 23.67 -17.3 23.34 -19 23 C-20.45016555 18.64950335 -20.51070107 14.54665815 -20 10 C-18.3125 6.625 -18.3125 6.625 -16 4 C-14.9790625 2.824375 -14.9790625 2.824375 -13.9375 1.625 C-9.41297538 -0.87792851 -5.05589517 -0.6396012 0 0 Z " fill="#F1EFEC" transform="translate(292,102)"/>
<path d="M0 0 C0.33 0 0.66 0 1 0 C1 8.25 1 16.5 1 25 C-1.64 25 -4.28 25 -7 25 C-7.33 24.34 -7.66 23.68 -8 23 C-8.99 23.66 -9.98 24.32 -11 25 C-16.02392499 25.80893707 -19.83247161 25.77056874 -24.125 22.9375 C-26.50177019 19.21389337 -26.77533825 17.34189423 -26 13 C-23.4352833 9.53008917 -21.89391378 8.21926187 -17.6875 7.1875 C-16.800625 7.125625 -15.91375 7.06375 -15 7 C-16.1446875 7.8971875 -16.1446875 7.8971875 -17.3125 8.8125 C-20.83744468 11.68164102 -23.1298436 13.82811265 -25 18 C-24.01 18.33 -23.02 18.66 -22 19 C-22 19.66 -22 20.32 -22 21 C-21.34 20.67 -20.68 20.34 -20 20 C-19.773125 18.865625 -19.54625 17.73125 -19.3125 16.5625 C-18.879375 15.386875 -18.44625 14.21125 -18 13 C-13.96863779 11.25054093 -10.37072027 10.73510786 -6 11 C-6.185625 12.216875 -6.37125 13.43375 -6.5625 14.6875 C-6.98993182 18.02977939 -6.92258883 20.71968417 -6 24 C-4.02 24 -2.04 24 0 24 C0 16.08 0 8.16 0 0 Z " fill="#E7E7E5" transform="translate(665,108)"/>
<path d="M0 0 C2.7722895 2.18864961 3.8068385 3.89879892 4.41796875 7.3828125 C4.67070966 11.95947226 4.49088544 14.29873509 1.8125 18.125 C-1 20 -1 20 -3.5625 20.625 C-6 20 -6 20 -8.3125 18.1875 C-10.79288464 13.50232902 -10.78323792 9.1949454 -10 4 C-7.45249327 -0.2131842 -4.77756484 -0.89579341 0 0 Z " fill="#0C0C0B" transform="translate(290,108)"/>
<path d="M0 0 C11.45703422 -0.36958175 11.45703422 -0.36958175 13.859375 1.265625 C15.84955291 4.29178594 15.58026372 7.566773 15 11 C13.6875 13.5 13.6875 13.5 11 15 C7.26593557 15.32236527 3.76274489 15.17917833 0 15 C0 10.05 0 5.1 0 0 Z " fill="#090909" transform="translate(578,98)"/>
<path d="M0 0 C0.515625 0.825 1.03125 1.65 1.5625 2.5 C3.84481661 5.33963148 3.84481661 5.33963148 7.5625 5.5625 C11.06287587 5.39714226 11.06287587 5.39714226 12.5 3 C12.995 2.34 13.49 1.68 14 1 C17.6875 0.75 17.6875 0.75 21 1 C20.58443583 5.84824868 18.62551755 7.88036862 15 11 C11.45808516 13.47934039 8.24212651 13.36570056 4 13 C-0.69555028 11.25067735 -3.13304192 9.07990188 -6 5 C-3.8614515 2.8614515 -2.86724686 2.57344937 0 2 C0 1.34 0 0.68 0 0 Z " fill="#E6E6E4" transform="translate(314,121)"/>
<path d="M0 0 C0.66 0.99 1.32 1.98 2 3 C2.66 2.34 3.32 1.68 4 1 C10.13545817 0.44223108 10.13545817 0.44223108 12.9375 2.25 C14 4 14 4 14 8 C10.7 8 7.4 8 4 8 C4.33 9.32 4.66 10.64 5 12 C3.906875 12.061875 2.81375 12.12375 1.6875 12.1875 C-2.14332716 12.6132233 -2.14332716 12.6132233 -3.9375 15.5625 C-4.288125 16.366875 -4.63875 17.17125 -5 18 C-5.66 17.67 -6.32 17.34 -7 17 C-7.05389087 15.04196493 -7.09274217 13.08351091 -7.125 11.125 C-7.14820313 10.03445312 -7.17140625 8.94390625 -7.1953125 7.8203125 C-7 5 -7 5 -5 3 C-4.67 3.66 -4.34 4.32 -4 5 C-2.68 3.35 -1.36 1.7 0 0 Z " fill="#EFEEE7" transform="translate(520,107)"/>
<path d="M0 0 C3.6875 -0.25 3.6875 -0.25 7 0 C6.6999825 3.50020422 6.04266259 4.94904191 3.75 7.6875 C-1.09216694 11.7593222 -4.71173683 12.34934795 -11 12 C-11.99 11.67 -12.98 11.34 -14 11 C-14 9 -14 9 -12 7 C-12.32041397 4.39719432 -12.32041397 4.39719432 -13 2 C-11.515 2.99 -11.515 2.99 -10 4 C-6.5 4.5 -6.5 4.5 -3 4 C-2.505 3.34 -2.01 2.68 -1.5 2 C-1.005 1.34 -0.51 0.68 0 0 Z " fill="#E0E0E0" transform="translate(694,122)"/>
<path d="M0 0 C3.14958831 3.42346555 3.56179109 6.44262737 4 11 C4.804375 11.268125 5.60875 11.53625 6.4375 11.8125 C7.283125 12.204375 8.12875 12.59625 9 13 C9.33 13.99 9.66 14.98 10 16 C5.95573657 17.59889485 3.14639356 18.6367343 -1 17 C-4.0906105 14.24350956 -5.28940547 12.00357407 -5.5625 7.9375 C-5 4 -5 4 -2.5 1.5 C-1.675 1.005 -0.85 0.51 0 0 Z " fill="#F8F7F5" transform="translate(220,95)"/>
<path d="M0 0 C0.99 0.66 1.98 1.32 3 2 C2.67 2.53625 2.34 3.0725 2 3.625 C0.77300796 6.5391061 0.85766714 8.86867708 1 12 C0.5359375 11.0409375 0.5359375 11.0409375 0.0625 10.0625 C-0.8345163 8.06389179 -0.8345163 8.06389179 -2 7 C-5.45821402 6.74996036 -5.45821402 6.74996036 -9 7 C-9.66 7.66 -10.32 8.32 -11 9 C-14.625 9.125 -14.625 9.125 -18 9 C-15.19027627 -0.19545948 -8.68985564 -1.15685385 0 0 Z " fill="#EAE6E2" transform="translate(658,102)"/>
<path d="M0 0 C6.6 0 13.2 0 20 0 C21 3 21 3 20 6 C20 5.34 20 4.68 20 4 C17.69 4 15.38 4 13 4 C12.67 4.99 12.34 5.98 12 7 C9.15916359 8.42041821 7.14522722 8.31452272 4 8 C1.625 6.25 1.625 6.25 0 4 C0 2.68 0 1.36 0 0 Z " fill="#0D0E0E" transform="translate(521,120)"/>
<path d="M0 0 C-0.185625 0.639375 -0.37125 1.27875 -0.5625 1.9375 C-0.706875 2.618125 -0.85125 3.29875 -1 4 C-0.67 4.33 -0.34 4.66 0 5 C0.04092937 7.33297433 0.04241723 9.66705225 0 12 C-0.33 12 -0.66 12 -1 12 C-1.33 10.35 -1.66 8.7 -2 7 C-6.0100934 6.82135369 -6.0100934 6.82135369 -10 7 C-10.66 7.66 -11.32 8.32 -12 9 C-15.125 9.125 -15.125 9.125 -18 9 C-17.7365632 5.83875839 -17.15914751 4.20305028 -15.1875 1.6875 C-10.2867912 -0.90699289 -5.43590526 -0.31210939 0 0 Z " fill="#EDEBE8" transform="translate(445,102)"/>
<path d="M0 0 C0.721875 0.00257812 1.44375 0.00515625 2.1875 0.0078125 C2.909375 0.00523438 3.63125 0.00265625 4.375 0 C6.1875 0.1328125 6.1875 0.1328125 7.1875 1.1328125 C7.22813832 2.79898365 7.230221 4.46669345 7.1875 6.1328125 C5.97513672 6.29716797 5.97513672 6.29716797 4.73828125 6.46484375 C3.66964844 6.62339844 2.60101563 6.78195313 1.5 6.9453125 C0.44425781 7.09613281 -0.61148437 7.24695313 -1.69921875 7.40234375 C-4.91443753 8.15673009 -7.09350323 9.29156237 -9.8125 11.1328125 C-9.8125 8.46614583 -9.8125 5.79947917 -9.8125 3.1328125 C-8.678125 2.8234375 -7.54375 2.5140625 -6.375 2.1953125 C-3.90111061 1.45748584 -2.34687515 0.1719693 0 0 Z " fill="#10100F" transform="translate(436.8125,107.8671875)"/>
<path d="M0 0 C-0.48219178 5.42465753 -0.48219178 5.42465753 -2.6875 7.875 C-5.65448426 9.31839775 -7.73954567 9.35439721 -11 9 C-11.66 8.34 -12.32 7.68 -13 7 C-12.625 4.375 -12.625 4.375 -12 2 C-7.8803623 0.70756464 -4.33168317 -0.26252625 0 0 Z " fill="#262624" transform="translate(659,119)"/>
<path d="M0 0 C1.9375 1.25 1.9375 1.25 3 3 C3 4.32 3 5.64 3 7 C-1.62 7 -6.24 7 -11 7 C-9.29343968 0.17375874 -7.0070338 -0.75075362 0 0 Z " fill="#232322" transform="translate(624,108)"/>
<path d="M0 0 C3.5625 0.3125 3.5625 0.3125 5.5 1.5625 C6.5625 3.3125 6.5625 3.3125 6.5625 7.3125 C1.9425 7.3125 -2.6775 7.3125 -7.4375 7.3125 C-4.68278302 0.42570755 -4.68278302 0.42570755 0 0 Z " fill="#1C1D1C" transform="translate(527.4375,107.6875)"/>
<path d="M0 0 C0.25 2.8125 0.25 2.8125 0 6 C-2.31864514 8.67535978 -3.64975756 8.97253 -7.1875 9.25 C-10 9 -10 9 -11 8 C-11.1875 5.5625 -11.1875 5.5625 -11 3 C-7.98842611 -0.01157389 -4.25225244 0 0 0 Z " fill="#121311" transform="translate(444,119)"/>
<path d="M0 0 C2.31 0 4.62 0 7 0 C7.33 0.99 7.66 1.98 8 3 C8.37125 2.505 8.7425 2.01 9.125 1.5 C11.74694393 -0.59755514 13.73842472 -0.21743835 17 0 C17 1.98 17 3.96 17 6 C15.71254964 6.38922918 14.41980403 6.76098036 13.125 7.125 C12.40570313 7.33382812 11.68640625 7.54265625 10.9453125 7.7578125 C10.30335938 7.83773437 9.66140625 7.91765625 9 8 C8.34 7.34 7.68 6.68 7 6 C6.67 6 6.34 6 6 6 C6 4.35 6 2.7 6 1 C4.02 1 2.04 1 0 1 C0 0.67 0 0.34 0 0 Z " fill="#F3F1F0" transform="translate(460,102)"/>
<path d="M0 0 C-1.485 2.475 -1.485 2.475 -3 5 C-2.34 5.33 -1.68 5.66 -1 6 C-2.27875 6.144375 -3.5575 6.28875 -4.875 6.4375 C-7.25692894 6.70642746 -8.84452691 6.92226346 -11 8 C-11.68707555 5.50935112 -12 3.62113708 -12 1 C-7.95858806 0.36605303 -4.0934693 -0.12404452 0 0 Z " fill="#DCDAD6" transform="translate(444,114)"/>
<path d="M0 0 C0.33 0.99 0.66 1.98 1 3 C2.65 3.33 4.3 3.66 6 4 C6 4.33 6 4.66 6 5 C5.38511719 5.12117188 4.77023437 5.24234375 4.13671875 5.3671875 C3.32847656 5.53476563 2.52023437 5.70234375 1.6875 5.875 C0.88699219 6.03742188 0.08648437 6.19984375 -0.73828125 6.3671875 C-3.25301118 6.94478999 -3.25301118 6.94478999 -6 9 C-6 6.33333333 -6 3.66666667 -6 1 C-4.02 0.67 -2.04 0.34 0 0 Z " fill="#1B1A18" transform="translate(433,110)"/>
<path d="M0 0 C2.44323037 2.44323037 2.68989682 3.588865 3 7 C2.125 10.125 2.125 10.125 1 13 C0.67 13.99 0.34 14.98 0 16 C-0.66 14.02 -1.32 12.04 -2 10 C-1.34 10 -0.68 10 0 10 C-0.37125 9.278125 -0.7425 8.55625 -1.125 7.8125 C-2.18974141 4.39011689 -1.60339848 3.11771927 0 0 Z " fill="#ECEBE7" transform="translate(392,112)"/>
<path d="M0 0 C1.65 0 3.3 0 5 0 C4.01 0.495 4.01 0.495 3 1 C3.33 1.99 3.66 2.98 4 4 C3.01 4.33 2.02 4.66 1 5 C1.66 5.66 2.32 6.32 3 7 C-3.625 6.25 -3.625 6.25 -7 4 C-4.69 3.01 -2.38 2.02 0 1 C0 0.67 0 0.34 0 0 Z " fill="#DEDEDA" transform="translate(229,109)"/>
<path d="M0 0 C3.68754757 0.49831724 5.60490662 1.10067643 8 4 C7 6 7 6 4 8 C1.84622436 5.37801226 0.59927826 3.35595828 0 0 Z " fill="#F7F3EE" transform="translate(292,104)"/>
<path d="M0 0 C-1.1446875 0.6496875 -1.1446875 0.6496875 -2.3125 1.3125 C-4.5879919 2.74129724 -6.17021704 4.07872789 -8 6 C-8.33 6 -8.66 6 -9 6 C-9.33 7.98 -9.66 9.96 -10 12 C-10.33 12 -10.66 12 -11 12 C-11.3125 8.8125 -11.3125 8.8125 -11 5 C-7.48125147 0.74046231 -5.41924572 -1.62577371 0 0 Z " fill="#D5D0CD" transform="translate(650,116)"/>
<path d="M0 0 C0.99 0.33 1.98 0.66 3 1 C2.67 1.66 2.34 2.32 2 3 C2.66 3.66 3.32 4.32 4 5 C1.36 5.33 -1.28 5.66 -4 6 C-4.33 5.01 -4.66 4.02 -5 3 C-2.6875 1.4375 -2.6875 1.4375 0 0 Z " fill="#F4EFEB" transform="translate(650,115)"/>
<path d="M0 0 C1.32 0 2.64 0 4 0 C4.33 1.65 4.66 3.3 5 5 C2.36 5 -0.28 5 -3 5 C-2.67 4.01 -2.34 3.02 -2 2 C-1.34 2 -0.68 2 0 2 C0 1.34 0 0.68 0 0 Z " fill="#EDE8E2" transform="translate(241,98)"/>
<path d="M0 0 C0.99 0.66 1.98 1.32 3 2 C2 5 2 5 0 6 C-0.40729228 8.32156597 -0.74438677 10.6568787 -1 13 C-1.33 13 -1.66 13 -2 13 C-2.05391993 11.20866022 -2.09275571 9.41686101 -2.125 7.625 C-2.14820313 6.62726563 -2.17140625 5.62953125 -2.1953125 4.6015625 C-2 2 -2 2 0 0 Z " fill="#191B1B" transform="translate(351,120)"/>
<path d="M0 0 C0.66 0.33 1.32 0.66 2 1 C1.34 2.32 0.68 3.64 0 5 C0.99 5.33 1.98 5.66 3 6 C1.02 6.66 -0.96 7.32 -3 8 C-3.66 7.01 -4.32 6.02 -5 5 C-3.35 3.35 -1.7 1.7 0 0 Z " fill="#E3E2E1" transform="translate(719,102)"/>
<path d="M0 0 C0.66 0 1.32 0 2 0 C2.66 1.32 3.32 2.64 4 4 C2.68 4 1.36 4 0 4 C-0.33 6.97 -0.66 9.94 -1 13 C-1.33 13 -1.66 13 -2 13 C-2.05391993 11.20866022 -2.09275571 9.41686101 -2.125 7.625 C-2.14820313 6.62726563 -2.17140625 5.62953125 -2.1953125 4.6015625 C-2 2 -2 2 0 0 Z " fill="#2E302F" transform="translate(492,120)"/>
<path d="M0 0 C5.61 0 11.22 0 17 0 C17 0.33 17 0.66 17 1 C15.3603125 1.433125 15.3603125 1.433125 13.6875 1.875 C9.95986155 2.81893204 9.95986155 2.81893204 7 5 C7 3.68 7 2.36 7 1 C4.69 1 2.38 1 0 1 C0 0.67 0 0.34 0 0 Z " fill="#303031" transform="translate(460,101)"/>
<path d="M0 0 C2.31 0 4.62 0 7 0 C6.67 1.65 6.34 3.3 6 5 C5.01 5 4.02 5 3 5 C2.67 4.34 2.34 3.68 2 3 C2.33 2.34 2.66 1.68 3 1 C2.01 0.67 1.02 0.34 0 0 Z " fill="#D1D0CF" transform="translate(534,124)"/>
<path d="M0 0 C0.33 0 0.66 0 1 0 C1.3125 3.25 1.3125 3.25 1 7 C-1.5 9.4375 -1.5 9.4375 -4 11 C-3.52269162 9.5410574 -3.04308958 8.08286504 -2.5625 6.625 C-2.29566406 5.81289062 -2.02882813 5.00078125 -1.75390625 4.1640625 C-1 2 -1 2 0 0 Z " fill="#1E201F" transform="translate(410,106)"/>
<path d="M0 0 C0.99 0.99 1.98 1.98 3 3 C2.34 3 1.68 3 1 3 C0.67 3.99 0.34 4.98 0 6 C-0.99 6.33 -1.98 6.66 -3 7 C-3.1875 4.625 -3.1875 4.625 -3 2 C-2.01 1.34 -1.02 0.68 0 0 Z " fill="#E5E6E4" transform="translate(656,126)"/>
<path d="M0 0 C0 2.31 0 4.62 0 7 C-1.65 7 -3.3 7 -5 7 C-5 4 -5 4 -3.0625 1.8125 C-1 0 -1 0 0 0 Z " fill="#DDD6CF" transform="translate(635,112)"/>
<path d="M0 0 C0.66 0.33 1.32 0.66 2 1 C1.01 2.485 1.01 2.485 0 4 C0 4.66 0 5.32 0 6 C-0.99 6.66 -1.98 7.32 -3 8 C-3.66 8.99 -4.32 9.98 -5 11 C-4.54663921 6.12637153 -3.2910841 3.60957611 0 0 Z " fill="#DAD8D6" transform="translate(312,104)"/>
<path d="M0 0 C1.32 0 2.64 0 4 0 C4.33 1.98 4.66 3.96 5 6 C4.01 6 3.02 6 2 6 C0 3 0 3 0 0 Z " fill="#1D1E1E" transform="translate(613,120)"/>
<path d="M0 0 C2.89932357 2.39509338 3.50168276 4.31245243 4 8 C3.34 8 2.68 8 2 8 C2 7.34 2 6.68 2 6 C1.34 6 0.68 6 0 6 C0 4.02 0 2.04 0 0 Z " fill="#1B1D1C" transform="translate(383,108)"/>
<path d="M0 0 C2.31 0 4.62 0 7 0 C6.67 1.65 6.34 3.3 6 5 C5.01 5 4.02 5 3 5 C3.66 3.68 4.32 2.36 5 1 C3.35 1 1.7 1 0 1 C0 0.67 0 0.34 0 0 Z " fill="#BEBBB9" transform="translate(627,124)"/>
<path d="M0 0 C2.0625 0.4375 2.0625 0.4375 4 1 C2.35 2.65 0.7 4.3 -1 6 C-1.042721 4.33388095 -1.04063832 2.66617115 -1 1 C-0.67 0.67 -0.34 0.34 0 0 Z " fill="#0B0C0B" transform="translate(492,107)"/>
<path d="M0 0 C1.21816406 0.03480469 1.21816406 0.03480469 2.4609375 0.0703125 C3.68683594 0.09738281 3.68683594 0.09738281 4.9375 0.125 C5.87722656 0.15980469 5.87722656 0.15980469 6.8359375 0.1953125 C5.4921875 1.71484375 5.4921875 1.71484375 3.8359375 3.1953125 C1.3359375 2.8828125 1.3359375 2.8828125 -1.1640625 2.1953125 C-2.1540625 2.1953125 -3.1440625 2.1953125 -4.1640625 2.1953125 C-2.1640625 0.1953125 -2.1640625 0.1953125 0 0 Z " fill="#D3D2D2" transform="translate(362.1640625,101.8046875)"/>
</svg>
